Hanif_Deep_2_5_grf.mot
version=1
nRows=37
nColumns=19
inDegrees=yes
endheader
time	right_ground_force_vx	right_ground_force_vy	right_ground_force_vz	right_ground_force_px	right_ground_force_py	right_ground_force_pz	right_ground_torque_x	right_ground_torque_y	right_ground_torque_z	left_ground_force_vx	left_ground_force_vy	left_ground_force_vz	left_ground_force_px	left_ground_force_py	left_ground_force_pz	left_ground_torque_x	left_ground_torque_y	left_ground_torque_z
1.075000	-19.327600	322.658000	-38.678300	0.214016	0.000000	-1.426100	-25.923600	1.366920	4.238260	5.142650	340.599000	40.259600	0.239095	0.000000	-0.973484	23.868500	-11.091300	12.233600
1.080000	-18.778900	321.220000	-38.564700	0.213585	0.000000	-1.426130	-25.790000	1.303860	4.090000	5.393220	341.565000	40.494100	0.238042	0.000000	-0.972410	23.564700	-10.984000	11.918600
1.085000	-18.628300	317.249000	-37.870300	0.212940	0.000000	-1.427350	-25.091400	1.404100	3.821330	5.409820	336.925000	40.958900	0.237961	0.000000	-0.972563	23.291900	-11.011700	11.686300
1.090000	-18.542900	318.243000	-37.846900	0.213020	0.000000	-1.427470	-25.131900	1.453860	3.856180	5.841690	336.177000	41.053600	0.236727	0.000000	-0.971845	22.986400	-10.983200	11.238700
1.095000	-18.425600	315.702000	-37.744100	0.212735	0.000000	-1.428240	-24.687600	1.446580	3.733770	6.529010	334.300000	40.935400	0.236147	0.000000	-0.972139	22.937800	-10.911700	10.984200
1.100000	-18.868300	314.233000	-37.916100	0.212914	0.000000	-1.428080	-24.633700	1.500050	3.758780	6.575900	332.722000	40.973300	0.235833	0.000000	-0.971695	22.678800	-10.899700	10.816800
1.105000	-18.687400	312.124000	-38.115300	0.212801	0.000000	-1.427130	-24.768600	1.522240	3.689120	7.627070	329.873000	41.129600	0.235075	0.000000	-0.971185	22.285900	-10.899900	10.456000
1.110000	-19.031400	312.364000	-37.837300	0.212459	0.000000	-1.427360	-24.716800	1.473880	3.588940	7.991540	327.318000	41.029700	0.233994	0.000000	-0.970546	21.889900	-10.904700	10.002500
1.115000	-19.100400	311.590000	-37.674800	0.212599	0.000000	-1.429510	-23.990700	1.593980	3.613580	8.322740	324.011000	40.491100	0.233163	0.000000	-0.970844	21.753700	-10.808300	9.632750
1.120000	-18.831300	308.043000	-37.849700	0.211278	0.000000	-1.428990	-23.876800	1.501860	3.163900	9.394020	323.185000	40.701900	0.232063	0.000000	-0.970120	21.431400	-10.906100	9.232460
1.125000	-18.102900	305.090000	-37.416100	0.211285	0.000000	-1.428180	-23.890200	1.491330	3.139160	10.631100	319.122000	40.376600	0.231948	0.000000	-0.970696	21.308600	-10.853200	9.076520
1.130000	-18.338600	305.604000	-37.199800	0.210539	0.000000	-1.428950	-23.708300	1.683780	2.891500	11.105000	317.297000	40.273600	0.230962	0.000000	-0.970498	21.105900	-10.884300	8.695920
1.135000	-17.785900	300.308000	-37.706400	0.209651	0.000000	-1.428560	-23.414900	1.664030	2.562010	11.978000	314.633000	39.511200	0.229637	0.000000	-0.970435	20.883200	-10.752100	8.223130
1.140000	-17.350700	300.828000	-37.466600	0.209871	0.000000	-1.429130	-23.277900	1.677010	2.640700	12.522100	314.033000	39.491100	0.229354	0.000000	-0.970160	20.739200	-10.807000	8.110640
1.145000	-17.074400	296.991000	-37.426600	0.209546	0.000000	-1.428510	-23.164900	1.687380	2.500870	13.036200	312.803000	39.427000	0.227625	0.000000	-0.969071	20.296600	-10.844300	7.520100
1.150000	-16.873500	294.961000	-37.646700	0.209369	0.000000	-1.429340	-22.767700	1.786560	2.415450	13.904700	307.425000	38.543000	0.227277	0.000000	-0.969818	20.139000	-10.878400	7.269990
1.155000	-16.934100	293.032000	-37.080900	0.208692	0.000000	-1.429450	-22.586900	1.705750	2.207870	15.048300	306.866000	38.314200	0.226650	0.000000	-0.969046	19.837800	-10.775900	7.084150
1.160000	-17.398900	289.431000	-36.883200	0.208424	0.000000	-1.429750	-22.238500	1.801590	2.079150	15.534500	304.370000	37.931700	0.225449	0.000000	-0.968531	19.495700	-10.799300	6.647260
1.165000	-16.413100	288.608000	-36.560700	0.207331	0.000000	-1.429950	-22.107000	1.794710	1.764140	16.209900	301.840000	37.415600	0.224402	0.000000	-0.967619	19.025000	-10.890300	6.258470
1.170000	-16.569200	288.624000	-36.629500	0.207980	0.000000	-1.430010	-22.094600	1.880080	1.942050	16.305100	300.689000	37.401800	0.223428	0.000000	-0.967529	18.922500	-10.791500	5.942120
1.175000	-15.841000	287.775000	-36.621800	0.207392	0.000000	-1.430050	-22.008200	1.836820	1.774870	16.571500	298.246000	36.487600	0.223655	0.000000	-0.967492	18.741700	-10.798200	5.970140
1.180000	-15.475200	286.366000	-36.021500	0.207450	0.000000	-1.430590	-21.746000	1.919080	1.779000	16.844400	298.382000	35.831000	0.221987	0.000000	-0.966954	18.582800	-10.724100	5.496850
1.185000	-15.428300	285.863000	-36.626100	0.207234	0.000000	-1.430610	-21.706600	1.973630	1.699880	17.021400	299.344000	35.732400	0.220789	0.000000	-0.965747	18.280600	-10.643100	5.168810
1.190000	-16.239800	284.104000	-35.801900	0.206950	0.000000	-1.430490	-21.622000	1.996270	1.599810	17.603800	297.214000	36.650200	0.220811	0.000000	-0.966009	18.206200	-10.669600	5.100560
1.195000	-15.756300	281.272000	-35.759800	0.206589	0.000000	-1.430710	-21.340600	1.956960	1.483650	17.948800	293.045000	35.809700	0.220079	0.000000	-0.966262	17.996800	-10.700400	4.803110
1.200000	-15.416900	280.475000	-35.344600	0.207515	0.000000	-1.430880	-21.225700	1.944810	1.750180	17.562100	294.919000	35.623700	0.219342	0.000000	-0.966131	18.089800	-10.677700	4.631730
1.205000	-15.987500	280.053000	-35.301700	0.206362	0.000000	-1.429830	-21.505300	2.072940	1.395300	17.884300	293.276000	34.931300	0.218484	0.000000	-0.964774	17.576100	-10.618300	4.364590
1.210000	-16.034000	280.661000	-35.821100	0.206631	0.000000	-1.429910	-21.528100	2.048840	1.474230	17.431600	294.609000	33.958600	0.218015	0.000000	-0.965841	17.994100	-10.487800	4.295210
1.215000	-15.771700	279.993000	-35.220200	0.206670	0.000000	-1.430190	-21.399900	2.106110	1.481860	17.696300	295.305000	33.306400	0.217112	0.000000	-0.965810	18.014500	-10.587200	4.048900
1.220000	-15.503500	282.902000	-35.449700	0.206546	0.000000	-1.430880	-21.420400	2.146390	1.466080	18.936800	298.095000	33.748900	0.217488	0.000000	-0.965189	17.970800	-10.701400	4.201570
1.225000	-15.419900	285.960000	-35.412400	0.206002	0.000000	-1.430670	-21.712700	2.252660	1.319840	19.884700	298.742000	34.960400	0.217156	0.000000	-0.966080	18.246000	-10.847600	4.072780
1.230000	-15.333700	287.704000	-34.786900	0.206759	0.000000	-1.430880	-21.788400	2.365770	1.547820	19.632500	304.532000	34.620300	0.216448	0.000000	-0.965721	18.514200	-10.897600	3.974830
1.235000	-15.293900	289.212000	-35.033100	0.207468	0.000000	-1.430720	-21.936200	2.236650	1.781200	19.762200	309.120000	33.969000	0.216167	0.000000	-0.965089	18.601400	-11.027800	3.981040
1.240000	-15.942300	291.921000	-35.350400	0.207776	0.000000	-1.430150	-22.321800	2.372780	1.869520	18.681500	313.271000	32.982900	0.216678	0.000000	-0.964919	18.842300	-11.015400	4.244520
1.245000	-16.003500	296.622000	-34.888500	0.207417	0.000000	-1.429830	-22.774000	2.399280	1.805060	19.469800	323.984000	31.349100	0.216462	0.000000	-0.964894	19.485700	-11.154100	4.420690
1.250000	-16.053600	301.474000	-34.702200	0.208160	0.000000	-1.429990	-23.100700	2.537730	2.059900	18.661700	327.576000	29.436600	0.216120	0.000000	-0.966312	20.187800	-11.336800	4.410650
1.255000	-16.706200	309.919000	-34.045000	0.208747	0.000000	-1.429770	-23.820600	2.654380	2.312230	19.124500	337.340000	28.110900	0.215553	0.000000	-0.965923	20.668100	-11.490300	4.425730
